<svg width="112" height="50" viewBox="0 0 112 50" fill="none" xmlns="http://www.w3.org/2000/svg">
<path d="M0.6 40L11.8 11.76H17.48L28.56 40H21.92L13.44 16.56H15.72L7.12 40H0.6ZM6.96 34.88V29.76H22.36V34.88H6.96ZM38.4197 40.48C37.273 40.48 36.1397 40.3333 35.0197 40.04C33.9264 39.7467 32.8997 39.3333 31.9397 38.8C31.0064 38.24 30.2064 37.6 29.5397 36.88L33.0197 33.36C33.6597 34.0533 34.4197 34.6 35.2997 35C36.1797 35.3733 37.1397 35.56 38.1797 35.56C38.8997 35.56 39.4464 35.4533 39.8197 35.24C40.2197 35.0267 40.4197 34.7333 40.4197 34.36C40.4197 33.88 40.1797 33.52 39.6997 33.28C39.2464 33.0133 38.6597 32.7867 37.9397 32.6C37.2197 32.3867 36.4597 32.16 35.6597 31.92C34.8597 31.68 34.0997 31.3467 33.3797 30.92C32.6597 30.4933 32.073 29.9067 31.6197 29.16C31.1664 28.3867 30.9397 27.4133 30.9397 26.24C30.9397 24.9867 31.2597 23.9067 31.8997 23C32.5397 22.0667 33.4464 21.3333 34.6197 20.8C35.793 20.2667 37.1664 20 38.7397 20C40.393 20 41.913 20.2933 43.2997 20.88C44.713 21.44 45.8597 22.28 46.7397 23.4L43.2597 26.92C42.6464 26.2 41.953 25.6933 41.1797 25.4C40.433 25.1067 39.6997 24.96 38.9797 24.96C38.2864 24.96 37.7664 25.0667 37.4197 25.28C37.073 25.4667 36.8997 25.7467 36.8997 26.12C36.8997 26.52 37.1264 26.84 37.5797 27.08C38.033 27.32 38.6197 27.5333 39.3397 27.72C40.0597 27.9067 40.8197 28.1333 41.6197 28.4C42.4197 28.6667 43.1797 29.0267 43.8997 29.48C44.6197 29.9333 45.2064 30.5467 45.6597 31.32C46.113 32.0667 46.3397 33.0533 46.3397 34.28C46.3397 36.1733 45.6197 37.68 44.1797 38.8C42.7664 39.92 40.8464 40.48 38.4197 40.48ZM55.66 40.08L47.66 20.56H54.26L59.34 36.04H56.9L62.1 20.56H68.7L60.38 40.08H55.66ZM50.66 48.2L56.5 35.6L60.38 40.08L56.94 48.2H50.66ZM83.3984 40V28.92C83.3984 27.9067 83.0784 27.0933 82.4384 26.48C81.8251 25.84 81.0384 25.52 80.0784 25.52C79.4118 25.52 78.8251 25.6667 78.3184 25.96C77.8118 26.2267 77.4118 26.6267 77.1184 27.16C76.8251 27.6667 76.6784 28.2533 76.6784 28.92L74.3184 27.76C74.3184 26.24 74.6518 24.9067 75.3184 23.76C75.9851 22.6133 76.9051 21.7333 78.0784 21.12C79.2784 20.48 80.6251 20.16 82.1184 20.16C83.5584 20.16 84.8251 20.5067 85.9184 21.2C87.0384 21.8667 87.9184 22.76 88.5584 23.88C89.1984 25 89.5184 26.2267 89.5184 27.56V40H83.3984ZM70.5584 40V20.56H76.6784V40H70.5584ZM102.849 40.44C100.849 40.44 99.0357 40 97.4091 39.12C95.7824 38.24 94.5024 37.0267 93.5691 35.48C92.6357 33.9333 92.1691 32.2 92.1691 30.28C92.1691 28.3333 92.6357 26.6 93.5691 25.08C94.5291 23.5333 95.8224 22.32 97.4491 21.44C99.0757 20.56 100.902 20.12 102.929 20.12C104.449 20.12 105.836 20.3867 107.089 20.92C108.369 21.4267 109.502 22.2 110.489 23.24L106.569 27.16C106.116 26.6533 105.582 26.28 104.969 26.04C104.382 25.8 103.702 25.68 102.929 25.68C102.049 25.68 101.262 25.88 100.569 26.28C99.9024 26.6533 99.3691 27.1867 98.9691 27.88C98.5957 28.5467 98.4091 29.3333 98.4091 30.24C98.4091 31.1467 98.5957 31.9467 98.9691 32.64C99.3691 33.3333 99.9157 33.88 100.609 34.28C101.302 34.68 102.076 34.88 102.929 34.88C103.729 34.88 104.436 34.7467 105.049 34.48C105.689 34.1867 106.236 33.7867 106.689 33.28L110.569 37.2C109.556 38.2667 108.409 39.08 107.129 39.64C105.849 40.1733 104.422 40.44 102.849 40.44Z" fill="#040605"/>
</svg>
